<svg width="11" height="12" viewBox="0 0 11 12" fill="none" xmlns="http://www.w3.org/2000/svg">
<path d="M5.5 11.375C8.5293 11.375 11 8.92578 11 5.875C11 2.8457 8.5293 0.375 5.5 0.375C2.44922 0.375 0 2.8457 0 5.875C0 8.92578 2.44922 11.375 5.5 11.375ZM7.92773 4.86523L5.17773 7.61523C4.96289 7.83008 4.64062 7.83008 4.44727 7.61523L3.07227 6.24023C2.85742 6.04688 2.85742 5.72461 3.07227 5.53125C3.26562 5.31641 3.58789 5.31641 3.80273 5.53125L4.8125 6.54102L7.19727 4.13477C7.39062 3.94141 7.71289 3.94141 7.90625 4.13477C8.12109 4.34961 8.12109 4.67188 7.90625 4.86523H7.92773Z" fill="#62B970"/>
</svg>
