<svg width="24" height="24" viewBox="0 0 24 24" fill="none" xmlns="http://www.w3.org/2000/svg">
<rect opacity="0.1" width="24" height="24" rx="6" fill="#898989"/>
<path d="M14.4766 14.375L17.2383 11.6406C17.4023 11.4766 17.4023 11.1758 17.2383 11.0117C17.0742 10.8477 16.7734 10.8477 16.6094 11.0117L13.875 13.7734L10.9766 10.875H11.25C12.6719 10.875 13.875 9.69922 13.875 8.25C13.875 6.82812 12.6719 5.625 11.25 5.625H8.1875C7.44922 5.625 6.875 6.22656 6.875 6.9375V13.0625C6.875 13.3086 7.06641 13.5 7.3125 13.5C7.53125 13.5 7.75 13.3086 7.75 13.0625V10.875H9.74609L13.2461 14.375L10.4844 17.1367C10.3203 17.3008 10.3203 17.6016 10.4844 17.7656C10.5664 17.8477 10.6758 17.875 10.8125 17.875C10.9219 17.875 11.0312 17.8477 11.1133 17.7656L13.875 15.0039L16.6094 17.7656C16.6914 17.8477 16.8008 17.875 16.9375 17.875C17.0469 17.875 17.1562 17.8477 17.2383 17.7656C17.4023 17.6016 17.4023 17.3008 17.2383 17.1367L14.4766 14.375ZM7.75 6.9375C7.75 6.71875 7.94141 6.5 8.1875 6.5H11.25C12.207 6.5 13 7.29297 13 8.25C13 9.23438 12.207 10 11.25 10H7.75V6.9375Z" fill="#898989"/>
</svg>
