<svg width="41" height="33" viewBox="0 0 41 33" fill="none" xmlns="http://www.w3.org/2000/svg">
<path d="M21.7305 3.6875C21.918 3.75 22.043 4 21.9805 4.1875C21.4805 9.6875 20.3555 15.5625 19.668 17.625C18.293 21.75 14.043 24 9.98047 22.9375C9.98047 22.9375 9.98047 22.9375 9.98047 23L7.29297 29.5L12.4805 31.25C12.7305 31.3125 12.918 31.625 12.793 31.875C12.7305 32.125 12.418 32.3125 12.168 32.1875L0.855469 28.375C0.605469 28.3125 0.480469 28.0625 0.542969 27.75C0.605469 27.5 0.917969 27.375 1.16797 27.4375L6.35547 29.1875L9.10547 22.6875C9.10547 22.625 9.16797 22.625 9.16797 22.625C5.23047 21.0625 3.23047 16.6875 4.54297 12.5625C5.29297 10.5 7.91797 5.125 10.793 0.4375C10.918 0.25 11.168 0.1875 11.3555 0.25L21.7305 3.6875ZM18.793 17.3125C19.043 16.5 19.4805 14.75 19.8555 12.5625L7.54297 8.4375C6.54297 10.4375 5.79297 12.0625 5.54297 12.875C4.29297 16.625 6.23047 20.625 9.91797 21.875C13.543 23.0625 17.543 21.0625 18.793 17.3125ZM20.043 11.5625C20.418 9.4375 20.7305 7 20.9805 4.5L11.418 1.3125C10.1055 3.5 8.91797 5.625 7.98047 7.5625L20.043 11.5625ZM39.8555 27.4375C40.1055 27.375 40.418 27.5 40.4805 27.8125C40.543 28.0625 40.418 28.375 40.168 28.4375L28.8555 32.25C28.6055 32.3125 28.293 32.1875 28.2305 31.9375C28.1055 31.6875 28.293 31.375 28.543 31.3125L33.7305 29.5625L31.043 23C30.9805 23 31.043 23 31.043 23C27.3555 23.9375 23.4805 22.125 21.793 18.6875C21.7305 18.5625 21.7305 18.375 21.8555 18.25C22.043 17.9375 22.4805 17.9375 22.668 18.3125C24.2305 21.4375 27.8555 23.0625 31.168 21.9375C34.8555 20.6875 36.793 16.6875 35.543 12.9375C35.293 12.125 34.543 10.5 33.543 8.5L23.8555 11.75C23.4805 11.8125 23.168 11.5625 23.2305 11.1875C23.2305 11 23.3555 10.8125 23.543 10.75L33.043 7.5625C32.1055 5.6875 30.918 3.5625 29.6055 1.375L24.2305 3.1875C24.043 3.25 23.793 3.125 23.668 2.9375C23.4805 2.6875 23.6055 2.3125 23.918 2.1875L29.668 0.3125C29.8555 0.25 30.1055 0.3125 30.2305 0.5C33.1055 5.125 35.7305 10.5 36.4805 12.5625C37.7305 16.6875 35.793 21.0625 31.8555 22.625C31.918 22.625 31.918 22.625 31.918 22.6875L34.668 29.1875L39.8555 27.4375Z" fill="#0030CC"/>
</svg>
