<svg width="24" height="24" viewBox="0 0 24 24" fill="none" xmlns="http://www.w3.org/2000/svg">
<rect opacity="0.1" width="24" height="24" rx="6" fill="#0030CC"/>
<path d="M13.1875 5.625C13.4062 5.625 13.625 5.84375 13.625 6.0625V6.9375C13.625 7.18359 13.4062 7.375 13.1875 7.375H5.3125C5.06641 7.375 4.875 7.18359 4.875 6.9375V6.0625C4.875 5.84375 5.06641 5.625 5.3125 5.625H13.1875ZM5.3125 4.75C4.57422 4.75 4 5.35156 4 6.0625V6.9375C4 7.67578 4.57422 8.25 5.3125 8.25H13.1875C13.8984 8.25 14.5 7.67578 14.5 6.9375V6.0625C14.5 5.35156 13.8984 4.75 13.1875 4.75H5.3125ZM4.875 9.125V17C4.875 17.9844 5.64062 18.75 6.625 18.75H11.875C12.1758 18.75 12.4766 18.668 12.7227 18.5312C12.4766 18.3398 12.2578 18.1211 12.0664 17.875C12.0117 17.875 11.9297 17.875 11.875 17.875H6.625C6.13281 17.875 5.75 17.4922 5.75 17V16.125H7.9375C8.15625 16.125 8.375 15.9336 8.375 15.6875C8.375 15.4688 8.15625 15.25 7.9375 15.25H5.75V13.5H7.9375C8.15625 13.5 8.375 13.3086 8.375 13.0625C8.375 12.8438 8.15625 12.625 7.9375 12.625H5.75V10.875H7.9375C8.15625 10.875 8.375 10.6836 8.375 10.4375C8.375 10.2188 8.15625 10 7.9375 10H5.75V9.125H4.875ZM13.625 9.125H12.75V11.1211C12.9961 10.9023 13.2969 10.6836 13.625 10.5469V9.125ZM15.8125 11.75C18.1641 11.75 19.6406 14.3203 18.4375 16.3438C17.8906 17.3008 16.9062 17.875 15.8125 17.875C13.4336 17.875 11.957 15.332 13.1602 13.2812C13.707 12.3516 14.6914 11.75 15.8125 11.75ZM15.8125 18.75C18.8203 18.75 20.7344 15.4688 19.2031 12.8438C18.4922 11.6406 17.207 10.875 15.8125 10.875C12.7773 10.875 10.8633 14.1562 12.3945 16.7812C13.1055 18.0117 14.3906 18.75 15.8125 18.75ZM16.7969 16.4531C16.9609 16.6172 17.2617 16.6172 17.4258 16.4531C17.5898 16.2891 17.5898 15.9883 17.4258 15.8242L14.8008 13.1992C14.6367 13.0352 14.3359 13.0352 14.1719 13.1992C14.0078 13.3633 14.0078 13.6641 14.1719 13.8281L16.7969 16.4531Z" fill="#0030CC"/>
</svg>
