<svg width="34" height="30" viewBox="0 0 34 30" fill="none" xmlns="http://www.w3.org/2000/svg">
<rect opacity="0.04" x="0.128906" width="33.4069" height="30" rx="15" fill="#212121"/>
<path d="M20.0156 10.8125V16.9375C20.0156 17.1836 19.7969 17.375 19.5781 17.375C19.332 17.375 19.1406 17.1836 19.1406 16.9375V11.8789L12.0039 19.0156C11.9219 19.0977 11.8125 19.125 11.7031 19.125C11.5664 19.125 11.457 19.0977 11.375 19.0156C11.2109 18.8516 11.2109 18.5508 11.375 18.3867L18.5117 11.25H13.4258C13.207 11.25 12.9883 11.0312 13.0156 10.8125C13.0156 10.5664 13.207 10.375 13.4531 10.375H19.5781C19.7969 10.375 20.0156 10.5938 20.0156 10.8125Z" fill="#212121"/>
</svg>