<svg width="72" height="72" viewBox="0 0 72 72" fill="none" xmlns="http://www.w3.org/2000/svg">
<path d="M32.2031 45.8438C31.7812 46.2656 31.0781 46.2656 30.6562 45.8438L21.6562 36.8438C21.2344 36.4219 21.2344 35.7188 21.6562 35.2969C22.0781 34.875 22.7812 34.875 23.2031 35.2969L31.5 43.4531L48.6562 26.2969C49.0781 25.875 49.7812 25.875 50.2031 26.2969C50.625 26.7188 50.625 27.4219 50.2031 27.8438L32.2031 45.8438ZM72 36C72 55.9688 55.8281 72 36 72C16.0312 72 0 55.9688 0 36C0 16.1719 16.0312 0 36 0C55.8281 0 72 16.1719 72 36ZM36 2.25C17.2969 2.25 2.25 17.4375 2.25 36C2.25 54.7031 17.2969 69.75 36 69.75C54.5625 69.75 69.75 54.7031 69.75 36C69.75 17.4375 54.5625 2.25 36 2.25Z" fill="#62B970"/>
</svg>
