<svg width="96" height="96" viewBox="0 0 96 96" fill="none" xmlns="http://www.w3.org/2000/svg">
<path d="M48 96C74.4375 96 96 74.625 96 48C96 21.5625 74.4375 0 48 0C21.375 0 0 21.5625 0 48C0 74.625 21.375 96 48 96ZM69.1875 39.1875L45.1875 63.1875C43.3125 65.0625 40.5 65.0625 38.8125 63.1875L26.8125 51.1875C24.9375 49.5 24.9375 46.6875 26.8125 45C28.5 43.125 31.3125 43.125 33.1875 45L42 53.8125L62.8125 32.8125C64.5 31.125 67.3125 31.125 69 32.8125C70.875 34.6875 70.875 37.5 69 39.1875H69.1875Z" fill="#62B970"/>
</svg>
