<svg width="16" height="17" viewBox="0 0 16 17" fill="none" xmlns="http://www.w3.org/2000/svg">
<path d="M8 1.0625C8 0.78125 8.21875 0.5 8.53125 0.5C12.6562 0.5 16 3.84375 16 7.96875C16 8.28125 15.7188 8.5 15.4375 8.5H8.5C8.21875 8.5 8 8.28125 8 8V1.0625ZM9 7.5H14.9688C14.75 4.3125 12.1875 1.75 9 1.53125V7.5ZM7 9.5H13.9062C14.4688 9.5 14.9375 10 14.8125 10.5625C14.0938 13.9688 11.0938 16.5 7.5 16.5C3.34375 16.5 0 13.1562 0 9C0 5.40625 2.53125 2.40625 5.9375 1.6875C6.5 1.5625 7 2.03125 7 2.59375V9.5ZM6 2.6875C3.125 3.375 1 5.9375 1 9C1 12.5938 3.90625 15.5 7.5 15.5C10.5625 15.5 13.125 13.375 13.8125 10.5H7C6.4375 10.5 6 10.0625 6 9.5V2.6875Z" fill="#212121"/>
</svg>