<svg width="18" height="17" viewBox="0 0 18 17" fill="none" xmlns="http://www.w3.org/2000/svg">
<path d="M0.5 0.5H1.65625C2.3125 0.5 2.875 0.90625 3.09375 1.5H16.8438C17.5 1.5 17.9688 2.125 17.8125 2.75L16.5 8C16.2812 8.875 15.4688 9.5 14.5625 9.5H4.75L4.96875 10.7188C5.0625 11.1875 5.5 11.5 5.96875 11.5H15.5C15.75 11.5 16 11.75 16 12C16 12.2812 15.75 12.5 15.5 12.5H5.96875C5 12.5 4.1875 11.8438 4 10.9062L2.15625 1.90625C2.125 1.6875 1.90625 1.5 1.65625 1.5H0.5C0.21875 1.5 0 1.28125 0 1C0 0.75 0.21875 0.5 0.5 0.5ZM3.3125 2.5L4.53125 8.5H14.5625C15.0312 8.5 15.4375 8.1875 15.5312 7.75L16.8438 2.5H3.3125ZM5.25 14.75C5.25 15.0312 5.375 15.2812 5.625 15.4062C6.125 15.7188 6.75 15.3438 6.75 14.75C6.75 14.5 6.59375 14.25 6.375 14.125C5.875 13.8125 5.25 14.1875 5.25 14.75ZM7.75 14.75C7.75 15.4062 7.40625 15.9688 6.875 16.2812C5.6875 16.9688 4.25 16.125 4.25 14.75C4.25 14.125 4.5625 13.5625 5.125 13.25C6.28125 12.5625 7.75 13.4062 7.75 14.75ZM14 14C13.7188 14 13.4688 14.1562 13.3438 14.375C13.0312 14.875 13.4062 15.5 14 15.5C14.25 15.5 14.5 15.375 14.625 15.125C14.9375 14.625 14.5625 14 14 14ZM14 16.5C13.3438 16.5 12.7812 16.1875 12.4688 15.625C11.7812 14.4688 12.625 13 14 13C14.625 13 15.1875 13.3438 15.5 13.875C16.1875 15.0625 15.3438 16.5 14 16.5Z" fill="#212121"/>
</svg>