<svg width="47" height="44" viewBox="0 0 47 44" fill="none" xmlns="http://www.w3.org/2000/svg">
<rect opacity="0.1" width="46.0725" height="44" rx="11" fill="#62B970"/>
<path d="M31.0977 19.625L29.1914 19C28.9102 18.875 28.6602 18.6875 28.6289 18.4375L28.1914 16.75C27.9727 15.9375 27.3164 15.3438 26.4414 15.0938C25.4727 14.875 24.4727 15.125 23.8164 15.7812L22.4727 17.125C22.2539 17.3438 21.8789 17.4688 21.5352 17.4375L19.5039 17.2812C18.4414 17.1875 17.4727 17.6875 17.0039 18.5312C16.5977 19.2812 16.6602 20.0938 17.1602 20.7812L18.2539 22.25C18.4102 22.4375 18.4102 22.6562 18.2852 22.875L17.5039 24.4688C17.1289 25.1875 17.1914 26 17.6914 26.6562C18.3164 27.4375 19.3477 27.8125 20.4102 27.5938L22.3789 27.1562C22.7227 27.0938 23.1289 27.1562 23.3789 27.3438L24.9414 28.5C25.4102 28.8438 25.9727 29.0312 26.5352 29.0312C26.9414 29.0312 27.3477 28.9375 27.7227 28.7812C28.5039 28.4062 29.0039 27.7188 29.0664 26.9062L29.2227 25.1875C29.2227 24.9375 29.4102 24.7188 29.6602 24.5938L31.4414 23.7188C32.2852 23.2812 32.7539 22.4688 32.6914 21.5938C32.6602 20.6875 32.0352 19.9375 31.0977 19.625ZM30.7852 22.375L29.0352 23.25C28.2852 23.625 27.8164 24.3125 27.7539 25.0625L27.5977 26.7812C27.5977 27.1562 27.2539 27.3438 27.1289 27.4062C26.7852 27.5625 26.3164 27.5938 25.8477 27.2812L24.3164 26.1562C23.8477 25.8125 23.2852 25.625 22.6914 25.625C22.4727 25.625 22.2852 25.6562 22.1289 25.6875L20.1289 26.125C19.6289 26.25 19.1602 26.0312 18.9414 25.75C18.8164 25.5625 18.7852 25.3438 18.8789 25.125L19.6914 23.5312C20.0352 22.8438 19.9727 22 19.5039 21.3438L18.3789 19.875C18.2227 19.6875 18.1914 19.4688 18.3164 19.25C18.4414 19 18.8164 18.7188 19.3789 18.7812L21.4102 18.9375C22.2227 19 23.0039 18.7188 23.5352 18.1562L24.8477 16.8438C25.1289 16.5625 25.5977 16.4375 26.0352 16.5625C26.3789 16.6562 26.6289 16.875 26.6914 17.125L27.1602 18.8125C27.3477 19.5625 27.9102 20.1562 28.7227 20.4062L30.6289 21.0625C30.9727 21.1875 31.2227 21.4062 31.2227 21.7188C31.2539 21.9688 31.0977 22.2188 30.7852 22.375ZM21.7227 20C21.1602 20 20.7539 20.4688 20.7539 21C20.7539 21.5 21.1914 22 21.7227 22C22.2227 22 22.6914 21.5625 22.6914 21.0312C22.6914 20.5312 22.2852 20 21.7227 20ZM25.7227 23C25.1602 23 24.7539 23.4688 24.7539 24C24.7539 24.5 25.1914 24.9688 25.7227 24.9688C26.2227 24.9688 26.6914 24.5 26.6914 24C26.6914 23.4688 26.2852 23 25.7227 23ZM26.2227 20C25.9414 20 25.7539 20.25 25.7539 20.5C25.7539 20.75 25.9727 20.9688 26.2227 20.9688C26.4727 20.9688 26.6914 20.75 26.6914 20.5C26.6914 20.25 26.5039 20 26.2227 20Z" fill="#62B970"/>
</svg>
