<svg width="20" height="19" viewBox="0 0 20 19" fill="none" xmlns="http://www.w3.org/2000/svg">
<path d="M0 2.3125C0 1.45312 0.664062 0.75 1.52344 0.75H18.4375C19.2969 0.75 20 1.45312 20 2.3125C20 2.66406 19.8438 3.01562 19.6094 3.28906L12.5 11.9219V16.9609C12.5 17.6641 11.875 18.25 11.1719 18.25C10.8594 18.25 10.5859 18.1719 10.3516 17.9766L7.96875 16.1406C7.65625 15.9062 7.5 15.5547 7.5 15.1641V11.9219L0.351562 3.28906C0.117188 3.01562 0 2.66406 0 2.3125ZM1.52344 2C1.36719 2 1.25 2.15625 1.25 2.3125C1.25 2.39062 1.25 2.42969 1.28906 2.50781L8.59375 11.2969C8.67188 11.4141 8.75 11.5703 8.75 11.6875V15.1641L11.0938 17C11.1328 17 11.1328 17 11.1719 17C11.2109 17 11.25 17 11.25 16.9609V11.6875C11.25 11.5703 11.2891 11.4141 11.3672 11.2969L18.6719 2.50781C18.7109 2.42969 18.75 2.39062 18.75 2.3125C18.75 2.15625 18.5938 2 18.4375 2H1.52344Z" fill="black"/>
</svg>