<svg width="18" height="17" viewBox="0 0 18 17" fill="none" xmlns="http://www.w3.org/2000/svg">
<path d="M17.9688 8.77344C17.9688 9.33594 17.5 9.77344 16.9688 9.77344H15.9688L16 14.7734C16 14.8672 16 14.9609 16 15.0234V15.5234C16 16.2422 15.4375 16.7734 14.75 16.7734H14.25C14.1875 16.7734 14.1562 16.7734 14.125 16.7734C14.0938 16.7734 14.0312 16.7734 14 16.7734H13H12.25C11.5312 16.7734 11 16.2422 11 15.5234V14.7734V12.7734C11 12.2422 10.5312 11.7734 10 11.7734H8C7.4375 11.7734 7 12.2422 7 12.7734V14.7734V15.5234C7 16.2422 6.4375 16.7734 5.75 16.7734H5H4C3.9375 16.7734 3.90625 16.7734 3.84375 16.7734C3.8125 16.7734 3.78125 16.7734 3.75 16.7734H3.25C2.53125 16.7734 2 16.2422 2 15.5234V12.0234C2 12.0234 2 11.9922 2 11.9609V9.77344H1C0.4375 9.77344 0 9.33594 0 8.77344C0 8.49219 0.09375 8.24219 0.3125 8.02344L8.3125 1.02344C8.53125 0.804688 8.78125 0.773438 9 0.773438C9.21875 0.773438 9.46875 0.835938 9.65625 0.992188L17.625 8.02344C17.875 8.24219 18 8.49219 17.9688 8.77344Z" fill="#898989"/>
</svg>