<svg width="20" height="17" viewBox="0 0 20 17" fill="none" xmlns="http://www.w3.org/2000/svg">
<path d="M19.5 0.5C19.75 0.5 20 0.75 20 1V16C20 16.2812 19.75 16.5 19.5 16.5C19.2188 16.5 19 16.2812 19 16V14.5H1V16C1 16.2812 0.75 16.5 0.5 16.5C0.21875 16.5 0 16.2812 0 16V1C0 0.75 0.21875 0.5 0.5 0.5C0.75 0.5 1 0.75 1 1V5.5H19V1C19 0.75 19.2188 0.5 19.5 0.5ZM19 13.5V6.5H1V13.5H19ZM12 4.5C11.4375 4.5 11 4.0625 11 3.5V1.5C11 0.96875 11.4375 0.5 12 0.5H14C14.5312 0.5 15 0.96875 15 1.5V3.5C15 4.0625 14.5312 4.5 14 4.5H12ZM12 1.5V3.5H14V1.5H12ZM9 12.5C8.4375 12.5 8 12.0625 8 11.5V9.5C8 8.96875 8.4375 8.5 9 8.5H11C11.5312 8.5 12 8.96875 12 9.5V11.5C12 12.0625 11.5312 12.5 11 12.5H9ZM9 9.5V11.5H11V9.5H9ZM4 12.5C3.4375 12.5 3 12.0625 3 11.5V9.5C3 8.96875 3.4375 8.5 4 8.5H6C6.53125 8.5 7 8.96875 7 9.5V11.5C7 12.0625 6.53125 12.5 6 12.5H4ZM4 9.5V11.5H6V9.5H4Z" fill="#212121"/>
</svg>