<svg width="47" height="44" viewBox="0 0 47 44" fill="none" xmlns="http://www.w3.org/2000/svg">
<rect opacity="0.1" width="46.0725" height="44" rx="11" fill="#9747FF"/>
<path d="M17.5654 27.8438C17.2217 27.9688 16.9092 28 16.5654 28C14.8779 28 13.5654 26.6562 13.5654 25V15.5H13.3154C12.8779 15.5 12.5654 15.1875 12.5654 14.75C12.5654 14.3438 12.8779 14 13.3154 14H19.8154C20.2217 14 20.5654 14.3438 20.5654 14.75C20.5654 15.1875 20.2217 15.5 19.8154 15.5H19.5654V23.6875L18.0342 26.1875C17.7217 26.6875 17.5654 27.25 17.5654 27.8438ZM15.0654 19H18.0654V15.5H15.0654V19ZM15.0654 20.5V25C15.0654 25.8438 15.7217 26.5 16.5654 26.5C17.3779 26.5 18.0654 25.8438 18.0654 25V20.5H15.0654ZM28.8154 14C29.2217 14 29.5654 14.3438 29.5654 14.75C29.5654 15.1875 29.2217 15.5 28.8154 15.5H28.5654V20.8125L32.2217 26.7812C32.4404 27.125 32.5654 27.5 32.5654 27.9062C32.5654 29.0625 31.5967 30 30.4404 30H20.6592C19.5029 30 18.5342 29.0625 18.5342 27.9062C18.5342 27.5 18.6592 27.125 18.8779 26.7812L22.5342 20.8125V15.5H22.2842C21.8779 15.5 21.5342 15.1875 21.5342 14.75C21.5342 14.3438 21.8779 14 22.2842 14H28.8154ZM27.0654 15.5H24.0654V21C24.0654 21.1562 24.0029 21.2812 23.9404 21.4062L22.3467 24H28.7529L27.1592 21.4062C27.0967 21.2812 27.0654 21.1562 27.0654 21V15.5ZM20.0654 27.9062C20.0654 28.25 20.3154 28.5 20.6592 28.5H30.4404C30.7842 28.5 31.0654 28.25 31.0654 27.9062C31.0654 27.7812 31.0029 27.6875 30.9717 27.5938L29.6904 25.5H21.4092L20.1279 27.5938C20.0967 27.6875 20.0654 27.7812 20.0654 27.9062Z" fill="#9747FF"/>
</svg>
