<svg width="27" height="29" viewBox="0 0 27 29" fill="none" xmlns="http://www.w3.org/2000/svg">
<path fill-rule="evenodd" clip-rule="evenodd" d="M3.326 10.1397C3.06743 10.0492 2.78946 10 2.5 10C1.29052 10 0.281644 10.8589 0.0500091 12H0V12.5V20.5V21H0.0500091C0.281644 22.1411 1.29052 23 2.5 23C4.64215 23.306 6.14047 22.656 6.95016 22.0352C5.8866 23.3608 5.85503 25.4852 6 26.5C6 27.7095 6.85888 28.7184 8 28.95V29H8.5H16.5H17V28.95C18.1411 28.7184 19 27.7095 19 26.5C19 26.2324 18.958 25.9747 18.8802 25.733C17.0589 15.3208 8.27531 11.1212 3.326 10.1397Z" fill="#2F5FFB"/>
<path fill-rule="evenodd" clip-rule="evenodd" d="M23.674 18.8603C23.9326 18.9508 24.2105 19 24.5 19C25.7095 19 26.7184 18.1411 26.95 17H27V16.5V8.5V8H26.95C26.7184 6.85888 25.7095 6 24.5 6C22.3578 5.69398 20.8595 6.34396 20.0498 6.9648C21.1134 5.63916 21.145 3.51477 21 2.5C21 1.29052 20.1411 0.281645 19 0.0500088V0H18.5H10.5H10V0.0500088C8.85888 0.281645 8 1.29052 8 2.5C8 2.76756 8.04203 3.02529 8.11985 3.26697C9.94108 13.6792 18.7247 17.8788 23.674 18.8603Z" fill="#7E9CFF"/>
</svg>