<svg id="Group_5" data-name="Group 5" xmlns="http://www.w3.org/2000/svg" width="106.602" height="110.996" viewBox="0 0 106.602 110.996">
  <path id="Path_8" data-name="Path 8" d="M360.857,211.742s7.7-1.968,6.8-11.274V167.541s-1.789-8.053-9.842-6.622c0,0-10.916,1.61-18.79,5.369,0,0,7.337-17.9,4.3-24.7,0,0-.895-4.294-8.232-4.117l-33.823-.006c-6.034,0-9.106,7.325-8.681,12.289,1.027,11.966,7.915,22.258,15.07,31.5a101.122,101.122,0,0,0,19.515,19c4,2.985,8.671,6.611,13.352,8.427C344.4,210.2,355.846,214.248,360.857,211.742Z" transform="translate(-261.128 -137.47)" fill="#31c5f4"/>
  <path id="Path_9" data-name="Path 9" d="M276.592,164.371s-7.7,1.968-6.8,11.274v32.928s1.789,8.053,9.842,6.622c0,0,10.916-1.61,18.79-5.369,0,0-7.337,17.9-4.3,24.7,0,0,.895,4.3,8.232,4.117l33.823.005c6.034,0,9.106-7.325,8.681-12.289-1.027-11.966-7.915-22.258-15.07-31.5a101.094,101.094,0,0,0-19.517-19c-4-2.985-8.671-6.611-13.352-8.427C293.044,165.913,281.6,161.866,276.592,164.371Z" transform="translate(-269.719 -127.647)" fill="#6255a4"/>
</svg>
