<svg id="Group_5" data-name="Group 5" xmlns="http://www.w3.org/2000/svg" width="43.66" height="45.46" viewBox="0 0 43.66 45.46">
  <path id="Path_8" data-name="Path 8" d="M320.524,167.889a4.065,4.065,0,0,0,2.785-4.617V149.786a3.469,3.469,0,0,0-4.031-2.712,32.158,32.158,0,0,0-7.7,2.2s3.005-7.329,1.759-10.115c0,0-.366-1.759-3.372-1.686l-13.853,0c-2.471,0-3.729,3-3.555,5.033.421,4.9,3.242,9.116,6.172,12.9a41.417,41.417,0,0,0,7.993,7.782,25.267,25.267,0,0,0,5.469,3.452C313.786,167.257,318.472,168.916,320.524,167.889Z" transform="translate(-279.679 -137.47)" fill="#31c5f4"/>
  <path id="Path_9" data-name="Path 9" d="M272.534,163.9a4.065,4.065,0,0,0-2.785,4.617V182a3.469,3.469,0,0,0,4.031,2.712,32.157,32.157,0,0,0,7.7-2.2s-3.005,7.329-1.759,10.115c0,0,.366,1.759,3.372,1.686l13.853,0c2.471,0,3.729-3,3.555-5.033-.421-4.9-3.242-9.116-6.172-12.9a41.4,41.4,0,0,0-7.993-7.782,25.268,25.268,0,0,0-5.469-3.452C279.272,164.531,274.586,162.873,272.534,163.9Z" transform="translate(-269.719 -148.858)" fill="#fff"/>
</svg>
