<svg width="47" height="44" viewBox="0 0 47 44" fill="none" xmlns="http://www.w3.org/2000/svg">
<rect opacity="0.1" width="46.0725" height="44" rx="11" fill="#62B970"/>
<path d="M26.7539 16H25.5039H25.1914C24.9727 14.875 23.9414 14 22.7539 14C21.5352 14 20.5352 14.875 20.2852 16H20.0039H18.7539C17.6289 16 16.7539 16.9062 16.7539 18V28C16.7539 29.125 17.6289 30 18.7539 30H26.7539C27.8477 30 28.7539 29.125 28.7539 28V18C28.7539 16.9062 27.8477 16 26.7539 16ZM19.2539 17.5V18.25C19.2539 18.6875 19.5664 19 20.0039 19H22.7539H25.5039C25.9102 19 26.2539 18.6875 26.2539 18.25V17.5H26.7539C27.0039 17.5 27.2539 17.75 27.2539 18V28C27.2539 28.2812 27.0039 28.5 26.7539 28.5H18.7539C18.4727 28.5 18.2539 28.2812 18.2539 28V18C18.2539 17.75 18.4727 17.5 18.7539 17.5H19.2539ZM22.0039 16.5C22.0039 15.9375 22.6289 15.5625 23.1289 15.875C23.3477 16 23.5039 16.25 23.5039 16.5C23.5039 17.0938 22.8789 17.4688 22.3789 17.1562C22.1289 17.0312 22.0039 16.7812 22.0039 16.5ZM20.0039 20.375C19.6602 20.375 19.3789 20.6562 19.3789 21V23.5V25.5C19.3789 25.8438 19.6602 26.125 20.0039 26.125C20.3477 26.125 20.6289 25.8438 20.6289 25.5V24.125H21.7227L23.3477 25.75L22.5352 26.5625C22.3164 26.8125 22.3164 27.2188 22.5352 27.4688C22.7852 27.6875 23.1914 27.6875 23.4414 27.4688L24.2539 26.6562L25.0352 27.4688C25.2852 27.6875 25.6914 27.6875 25.9414 27.4688C26.1914 27.2188 26.1914 26.8125 25.9414 26.5625L25.1289 25.75L25.9414 24.9688C26.1914 24.7188 26.1914 24.3125 25.9414 24.0625C25.6914 23.8125 25.2852 23.8125 25.0352 24.0625L24.2539 24.875L23.2227 23.875C23.7539 23.5312 24.1289 22.9375 24.1289 22.25C24.1289 21.2188 23.2852 20.375 22.2539 20.375H20.0039ZM22.2539 22.875H22.0039H20.6289V21.625H22.2539C22.5977 21.625 22.8789 21.9062 22.8789 22.25C22.8789 22.5938 22.5977 22.875 22.2539 22.875Z" fill="#62B970"/>
</svg>
