<svg width="16" height="17" viewBox="0 0 16 17" fill="none" xmlns="http://www.w3.org/2000/svg">
<path d="M8 7.75C8.40625 7.75 8.75 8.09375 8.75 8.5C8.75 8.9375 8.40625 9.25 8 9.25C7.5625 9.25 7.25 8.9375 7.25 8.5C7.25 8.09375 7.5625 7.75 8 7.75ZM11 9.25C10.5625 9.25 10.25 8.9375 10.25 8.5C10.25 8.09375 10.5625 7.75 11 7.75C11.4062 7.75 11.75 8.09375 11.75 8.5C11.75 8.9375 11.4062 9.25 11 9.25ZM5 7.75C5.40625 7.75 5.75 8.09375 5.75 8.5C5.75 8.9375 5.40625 9.25 5 9.25C4.5625 9.25 4.25 8.9375 4.25 8.5C4.25 8.09375 4.5625 7.75 5 7.75ZM8 16.5C3.5625 16.5 0 12.9375 0 8.5C0 4.09375 3.5625 0.5 8 0.5C12.4062 0.5 16 4.09375 16 8.5C16 12.9375 12.4062 16.5 8 16.5ZM15 8.5C15 4.65625 11.8438 1.5 8 1.5C4.125 1.5 1 4.65625 1 8.5C1 12.375 4.125 15.5 8 15.5C11.8438 15.5 15 12.375 15 8.5Z" fill="#212121"/>
</svg>