<svg width="20" height="17" viewBox="0 0 20 17" fill="none" xmlns="http://www.w3.org/2000/svg">
<path d="M0 6.3125C0 6.125 0.03125 5.9375 0.125 5.75L2.5625 1.3125C2.8125 0.8125 3.3125 0.5 3.875 0.5H16.0938C16.6562 0.5 17.1562 0.8125 17.4062 1.3125L19.8438 5.75C19.9375 5.9375 20 6.125 20 6.3125C20 6.96875 19.4375 7.5 18.7812 7.5H18V16C18 16.2812 17.75 16.5 17.5 16.5C17.2188 16.5 17 16.2812 17 16V7.5H3V11.5H11V9C11 8.75 11.2188 8.5 11.5 8.5C11.75 8.5 12 8.75 12 9V15C12 15.8438 11.3125 16.5 10.5 16.5H3.5C2.65625 16.5 2 15.8438 2 15V7.5H1.1875C0.53125 7.5 0 6.96875 0 6.3125ZM18.7812 6.5C18.9062 6.5 19 6.4375 19 6.3125C19 6.28125 18.9688 6.25 18.9688 6.21875L16.5312 1.78125C16.4375 1.625 16.2812 1.5 16.0938 1.5H3.875C3.6875 1.5 3.53125 1.625 3.4375 1.78125L1 6.21875C1 6.25 1 6.28125 1 6.3125C1 6.4375 1.0625 6.5 1.1875 6.5H18.7812ZM3.5 15.5H10.5C10.75 15.5 11 15.2812 11 15V12.5H3V15C3 15.2812 3.21875 15.5 3.5 15.5Z" fill="#212121"/>
</svg>