<svg width="24" height="24" viewBox="0 0 24 24" fill="none" xmlns="http://www.w3.org/2000/svg">
<rect opacity="0.1" width="24" height="24" rx="6" fill="#FFB118"/>
<path d="M18.25 14.8125V6.0625C18.25 5.35156 17.6484 4.75 16.9375 4.75H8.1875C6.95703 4.75 6 5.73438 6 6.9375V17C6 17.9844 6.76562 18.75 7.75 18.75H17.8125C18.0312 18.75 18.25 18.5586 18.25 18.3125C18.25 18.0938 18.0312 17.875 17.8125 17.875H17.375V16.0703C17.8672 15.8789 18.25 15.3867 18.25 14.8125ZM6.875 6.9375C6.875 6.22656 7.44922 5.625 8.1875 5.625H8.625V15.25H7.75C7.42188 15.25 7.12109 15.3594 6.875 15.4961V6.9375ZM16.5 17.875H7.75C7.25781 17.875 6.875 17.4922 6.875 17C6.875 16.5352 7.25781 16.125 7.75 16.125H16.5V17.875ZM16.9375 15.25H9.5V5.625H16.9375C17.1562 5.625 17.375 5.84375 17.375 6.0625V14.8125C17.375 15.0586 17.1562 15.25 16.9375 15.25ZM15.625 8.25H11.25C11.0039 8.25 10.8125 8.46875 10.8125 8.6875C10.8125 8.93359 11.0039 9.125 11.25 9.125H15.625C15.8438 9.125 16.0625 8.93359 16.0625 8.6875C16.0625 8.46875 15.8438 8.25 15.625 8.25ZM15.625 10.875H11.25C11.0039 10.875 10.8125 11.0938 10.8125 11.3125C10.8125 11.5586 11.0039 11.75 11.25 11.75H15.625C15.8438 11.75 16.0625 11.5586 16.0625 11.3125C16.0625 11.0938 15.8438 10.875 15.625 10.875Z" fill="#FFB118"/>
</svg>
