<svg width="48" height="44" viewBox="0 0 48 44" fill="none" xmlns="http://www.w3.org/2000/svg">
<rect opacity="0.1" x="0.1875" width="47.2714" height="44" rx="11" fill="#62B970"/>
<path d="M27.3789 16C28.4727 16 29.3789 16.9062 29.3789 18V28C29.3789 29.125 28.4727 30 27.3789 30H19.3789C18.2539 30 17.3789 29.125 17.3789 28V18C17.3789 16.9062 18.2539 16 19.3789 16H20.6289H20.9102C21.1602 14.875 22.1602 14 23.3789 14C24.5664 14 25.5977 14.875 25.8164 16H26.1289H27.3789ZM19.8789 17.5H19.3789C19.0977 17.5 18.8789 17.75 18.8789 18V28C18.8789 28.2812 19.0977 28.5 19.3789 28.5H27.3789C27.6289 28.5 27.8789 28.2812 27.8789 28V18C27.8789 17.75 27.6289 17.5 27.3789 17.5H26.8789V18.25C26.8789 18.6875 26.5352 19 26.1289 19H23.3789H20.6289C20.1914 19 19.8789 18.6875 19.8789 18.25V17.5ZM22.6289 16.5C22.6289 16.7812 22.7539 17.0312 23.0039 17.1562C23.5039 17.4688 24.1289 17.0938 24.1289 16.5C24.1289 16.25 23.9727 16 23.7539 15.875C23.2539 15.5625 22.6289 15.9375 22.6289 16.5ZM20.6289 20.375H22.8789C23.9102 20.375 24.7539 21.2188 24.7539 22.25C24.7539 22.9375 24.3789 23.5312 23.8477 23.875L24.8789 24.875L25.6602 24.0625C25.9102 23.8125 26.3164 23.8125 26.5664 24.0625C26.8164 24.3125 26.8164 24.7188 26.5664 24.9688L25.7539 25.75L26.5664 26.5625C26.8164 26.8125 26.8164 27.2188 26.5664 27.4688C26.3164 27.6875 25.9102 27.6875 25.6602 27.4688L24.8789 26.6562L24.0664 27.4688C23.8164 27.6875 23.4102 27.6875 23.1602 27.4688C22.9414 27.2188 22.9414 26.8125 23.1602 26.5625L23.9727 25.75L22.3477 24.125H21.2539V25.5C21.2539 25.8438 20.9727 26.125 20.6289 26.125C20.2852 26.125 20.0039 25.8438 20.0039 25.5V23.5V21C20.0039 20.6562 20.2852 20.375 20.6289 20.375ZM22.8789 22.875C23.2227 22.875 23.5039 22.5938 23.5039 22.25C23.5039 21.9062 23.2227 21.625 22.8789 21.625H21.2539V22.875H22.6289H22.8789Z" fill="#62B970"/>
</svg>
