<svg width="49" height="47" viewBox="0 0 49 47" fill="none" xmlns="http://www.w3.org/2000/svg">
<rect opacity="0.1" x="0.421875" y="0.8125" width="47.9087" height="46.0465" rx="11" fill="#62B970"/>
<path d="M26.0938 16.4688C26.5 16.4688 26.8438 16.8125 26.8438 17.2188C26.8438 17.6562 26.5 17.9688 26.0938 17.9688H25.8438V21.9688C25.7188 22.0312 25.625 22.0938 25.5625 22.1875C24.875 22.875 24.875 23.9688 25.5625 24.6562V24.6875C25.5312 24.6875 25.5312 24.6875 25.5312 24.6875C25.0625 24.6875 24.6562 24.875 24.3438 25.1875V22.9688H21.3438V27.4688C21.3438 28.3125 22 28.9688 22.8438 28.9688C23.5938 28.9688 24.2188 28.4375 24.3125 27.6875C24.625 28 25.0625 28.1875 25.5312 28.1875C25.5312 28.1875 25.5312 28.1875 25.5625 28.1875V28.2188C25.5625 28.25 25.5625 28.25 25.5625 28.25C25.2188 28.5938 25.0312 29.0625 25.0312 29.5C24.5 30.0938 23.7188 30.4688 22.8438 30.4688C21.1562 30.4688 19.8438 29.125 19.8438 27.4688V17.9688H19.5938C19.1562 17.9688 18.8438 17.6562 18.8438 17.2188C18.8438 16.8125 19.1562 16.4688 19.5938 16.4688H26.0938ZM24.3438 21.4688V17.9688H21.3438V21.4688H24.3438ZM29.8125 21.4062C30.25 21.4062 30.5625 21.75 30.5625 22.1562C30.5625 23.0625 31.6875 23.5312 32.3125 22.875C32.625 22.5938 33.0938 22.5938 33.375 22.875C33.6875 23.1875 33.6875 23.6562 33.375 23.9375C32.75 24.5938 33.1875 25.6875 34.125 25.6875C34.5312 25.6875 34.875 26.0312 34.875 26.4375C34.875 26.875 34.5312 27.1875 34.125 27.1875C33.1875 27.1875 32.75 28.3125 33.375 28.9375C33.6875 29.25 33.6875 29.7188 33.375 30C33.0938 30.3125 32.625 30.3125 32.3125 30C31.6875 29.375 30.5625 29.8125 30.5625 30.75C30.5625 31.1562 30.25 31.5 29.8125 31.5C29.4062 31.5 29.0625 31.1562 29.0625 30.75C29.0625 29.8125 27.9688 29.375 27.3125 30C27.0312 30.3125 26.5625 30.3125 26.25 30C25.9688 29.7188 25.9688 29.25 26.25 28.9375C26.9062 28.3125 26.4375 27.1875 25.5312 27.1875C25.125 27.1875 24.7812 26.875 24.7812 26.4375C24.7812 26.0312 25.125 25.6875 25.5312 25.6875C26.4375 25.6875 26.9062 24.5938 26.25 23.9375C25.9688 23.6562 25.9688 23.1875 26.25 22.875C26.5625 22.5938 27.0312 22.5938 27.3125 22.875C27.9688 23.5312 29.0625 23.0625 29.0625 22.1562C29.0625 21.75 29.4062 21.4062 29.8125 21.4062ZM28.8438 26.4688C29.375 26.4688 29.8438 26.0312 29.8438 25.4688C29.8438 24.9375 29.375 24.4688 28.8438 24.4688C28.2812 24.4688 27.8438 24.9375 27.8438 25.4688C27.8438 26.0312 28.2812 26.4688 28.8438 26.4688ZM30.8438 26.7188C30.4062 26.7188 30.0938 27.0625 30.0938 27.4688C30.0938 27.9062 30.4062 28.2188 30.8438 28.2188C31.25 28.2188 31.5938 27.9062 31.5938 27.4688C31.5938 27.0625 31.25 26.7188 30.8438 26.7188Z" fill="#62B970"/>
</svg>
