<svg width="52" height="47" viewBox="0 0 52 47" fill="none" xmlns="http://www.w3.org/2000/svg">
<rect opacity="0.1" x="0.558594" y="0.625" width="51.1264" height="46.0465" rx="11" fill="#0030CC"/>
<path d="M34.9453 21.5938C35.2266 22.0938 35.2578 22.6562 35.0391 23.1875C34.2578 25.0625 31.8828 29.2812 27.3203 29.2812H25.0391C20.4766 29.2812 18.1016 25.0625 17.3203 23.1875C17.1016 22.6562 17.1328 22.0938 17.4141 21.5938C18.8828 19.1875 22.0703 17.2812 23.4453 17.2812C23.4453 17.2812 24.3516 17.2812 26.1641 18.6875C27.9766 17.2812 28.9141 17.2812 28.9141 17.2812C30.2891 17.2812 33.4766 19.1875 34.9453 21.5938ZM27.3203 27.7812C31.1641 27.7812 33.1328 23.8125 33.6641 22.5938C33.6953 22.5312 33.6953 22.4375 33.6328 22.375C32.4766 20.4062 29.8203 18.9062 29.0078 18.8125C28.8203 18.8438 28.1953 19.0625 27.1016 19.9062L26.1953 20.5938L25.2578 19.9062C24.1641 19.0625 23.5391 18.8438 23.3516 18.8125C22.5078 18.875 19.8828 20.4062 18.7266 22.375C18.6641 22.4375 18.6641 22.5312 18.6953 22.5938C19.2266 23.8125 21.1953 27.7812 25.0391 27.7812H27.3203ZM27.6016 22.0312L28.4453 21.7812C30.6953 21.7812 32.1953 22.6562 32.1953 22.6562C32.1953 22.6562 30.1953 25.2812 26.1953 25.2812C22.1953 25.2812 20.1953 22.6562 20.1953 22.6562C20.1953 22.6562 21.6953 21.7812 23.9453 21.7812L24.7578 22.0312C25.1953 22.1562 25.6953 22.2188 26.1953 22.2188C26.6641 22.2188 27.1641 22.1562 27.6016 22.0312Z" fill="#0030CC"/>
</svg>
