<svg width="45" height="43" viewBox="0 0 45 43" fill="none" xmlns="http://www.w3.org/2000/svg">
<ellipse opacity="0.1" cx="22.3478" cy="21.5781" rx="21.6915" ry="21" fill="#212121"/>
<path d="M29.0508 14.6797C30.1445 14.6797 31.0508 15.5859 31.0508 16.6797V26.6797C31.0508 27.8047 30.1445 28.6797 29.0508 28.6797H15.0508C13.9258 28.6797 13.0508 27.8047 13.0508 26.6797V16.6797C13.0508 15.5859 13.9258 14.6797 15.0508 14.6797H29.0508ZM29.5508 26.6797V16.6797C29.5508 16.4297 29.3008 16.1797 29.0508 16.1797H15.0508C14.7695 16.1797 14.5508 16.4297 14.5508 16.6797V21.1797H18.5508C18.8008 21.1797 19.0508 21.3359 19.1758 21.5547L19.9883 22.8984L21.8633 19.1172C21.9883 18.8672 22.2383 18.7109 22.5195 18.7109C22.7383 18.6797 23.0508 18.8359 23.1758 19.0547L24.457 21.1797H26.3008C26.707 21.1797 27.0508 21.5234 27.0508 21.9297C27.0508 22.3672 26.707 22.6797 26.3008 22.6797H24.0508C23.7695 22.6797 23.5195 22.5547 23.3945 22.3359L22.582 20.9922L20.707 24.7734C20.582 25.0234 20.332 25.1797 20.0508 25.1797C19.7695 25.1797 19.5195 25.0547 19.3945 24.8359L18.1133 22.6797H14.5508V26.6797C14.5508 26.9609 14.7695 27.1797 15.0508 27.1797H29.0508C29.3008 27.1797 29.5508 26.9609 29.5508 26.6797Z" fill="#212121"/>
</svg>
