<svg width="47" height="44" viewBox="0 0 47 44" fill="none" xmlns="http://www.w3.org/2000/svg">
<rect opacity="0.1" x="0.753906" width="46.0725" height="44" rx="11" fill="#62B970"/>
<path d="M27.5078 16C28.6016 16 29.5078 16.9062 29.5078 18V28C29.5078 29.125 28.6016 30 27.5078 30H19.5078C18.3828 30 17.5078 29.125 17.5078 28V18C17.5078 16.9062 18.3828 16 19.5078 16H20.7578H21.0391C21.2891 14.875 22.2891 14 23.5078 14C24.6953 14 25.7266 14.875 25.9453 16H26.2578H27.5078ZM20.0078 17.5H19.5078C19.2266 17.5 19.0078 17.75 19.0078 18V28C19.0078 28.2812 19.2266 28.5 19.5078 28.5H27.5078C27.7578 28.5 28.0078 28.2812 28.0078 28V18C28.0078 17.75 27.7578 17.5 27.5078 17.5H27.0078V18.25C27.0078 18.6875 26.6641 19 26.2578 19H23.5078H20.7578C20.3203 19 20.0078 18.6875 20.0078 18.25V17.5ZM22.7578 16.5C22.7578 16.7812 22.8828 17.0312 23.1328 17.1562C23.6328 17.4688 24.2578 17.0938 24.2578 16.5C24.2578 16.25 24.1016 16 23.8828 15.875C23.3828 15.5625 22.7578 15.9375 22.7578 16.5ZM20.7578 20.375H23.0078C24.0391 20.375 24.8828 21.2188 24.8828 22.25C24.8828 22.9375 24.5078 23.5312 23.9766 23.875L25.0078 24.875L25.7891 24.0625C26.0391 23.8125 26.4453 23.8125 26.6953 24.0625C26.9453 24.3125 26.9453 24.7188 26.6953 24.9688L25.8828 25.75L26.6953 26.5625C26.9453 26.8125 26.9453 27.2188 26.6953 27.4688C26.4453 27.6875 26.0391 27.6875 25.7891 27.4688L25.0078 26.6562L24.1953 27.4688C23.9453 27.6875 23.5391 27.6875 23.2891 27.4688C23.0703 27.2188 23.0703 26.8125 23.2891 26.5625L24.1016 25.75L22.4766 24.125H21.3828V25.5C21.3828 25.8438 21.1016 26.125 20.7578 26.125C20.4141 26.125 20.1328 25.8438 20.1328 25.5V23.5V21C20.1328 20.6562 20.4141 20.375 20.7578 20.375ZM23.0078 22.875C23.3516 22.875 23.6328 22.5938 23.6328 22.25C23.6328 21.9062 23.3516 21.625 23.0078 21.625H21.3828V22.875H22.7578H23.0078Z" fill="#62B970"/>
</svg>
