<svg width="49" height="47" viewBox="0 0 49 47" fill="none" xmlns="http://www.w3.org/2000/svg">
<rect opacity="0.1" x="0.359375" y="0.792969" width="47.7418" height="46.0465" rx="11" fill="#62B970"/>
<path d="M22.6484 23.4453C20.4297 23.4453 18.6484 21.6641 18.6484 19.4453C18.6484 17.2578 20.4297 15.4453 22.6484 15.4453C24.8359 15.4453 26.6484 17.2578 26.6484 19.4453C26.6484 21.6641 24.8359 23.4453 22.6484 23.4453ZM22.6484 16.9453C21.2422 16.9453 20.1484 18.0703 20.1484 19.4453C20.1484 20.8516 21.2422 21.9453 22.6484 21.9453C24.0234 21.9453 25.1484 20.8516 25.1484 19.4453C25.1484 18.0703 24.0234 16.9453 22.6484 16.9453ZM24.2109 24.9453C27.2109 24.9453 29.6484 27.3828 29.6484 30.3828C29.6484 30.9766 29.1484 31.4453 28.5547 31.4453H16.7109C16.1172 31.4453 15.6484 30.9766 15.6484 30.3828C15.6484 27.3828 18.0547 24.9453 21.0547 24.9453H24.2109ZM17.1484 29.9453H28.1172C27.8672 28.0078 26.2422 26.4453 24.2109 26.4453H21.0547C19.0234 26.4453 17.3672 28.0078 17.1484 29.9453ZM30.6172 25.4453C33.3984 25.4453 35.6484 27.6953 35.6484 30.4453C35.6484 31.0078 35.1797 31.4453 34.6484 31.4453H30.3359C30.5234 31.1328 30.6484 30.7891 30.6484 30.3828C30.6484 28.4141 29.7422 26.6328 28.3047 25.4453H30.6172ZM29.1484 23.4453C28.1484 23.4453 27.2734 23.0703 26.6484 22.4141C27.2734 21.6016 27.6484 20.5703 27.6484 19.4453C27.6484 18.6328 27.3984 17.8516 27.0547 17.1641C27.6172 16.7266 28.3359 16.4453 29.1484 16.4453C31.0547 16.4453 32.6484 18.0391 32.6484 19.9453C32.6484 21.8828 31.0547 23.4453 29.1484 23.4453Z" fill="#62B970"/>
</svg>
