<svg width="47" height="44" viewBox="0 0 47 44" fill="none" xmlns="http://www.w3.org/2000/svg">
<rect opacity="0.1" x="0.753906" width="46.0725" height="44" rx="11" fill="#62B970"/>
<path d="M31.8516 19.625C32.7891 19.9375 33.4141 20.6875 33.4453 21.5938C33.5078 22.4688 33.0391 23.2812 32.1953 23.7188L30.4141 24.5938C30.1641 24.7188 29.9766 24.9375 29.9766 25.1875L29.8203 26.9062C29.7578 27.7188 29.2578 28.4062 28.4766 28.7812C28.1016 28.9375 27.6953 29.0312 27.2891 29.0312C26.7266 29.0312 26.1641 28.8438 25.6953 28.5L24.1328 27.3438C23.8828 27.1562 23.4766 27.0938 23.1328 27.1562L21.1641 27.5938C20.1016 27.8125 19.0703 27.4375 18.4453 26.6562C17.9453 26 17.8828 25.1875 18.2578 24.4688L19.0391 22.875C19.1641 22.6562 19.1641 22.4375 19.0078 22.25L17.9141 20.7812C17.4141 20.0938 17.3516 19.2812 17.7578 18.5312C18.2266 17.6875 19.1953 17.1875 20.2578 17.2812L22.2891 17.4375C22.6328 17.4688 23.0078 17.3438 23.2266 17.125L24.5703 15.7812C25.2266 15.125 26.2266 14.875 27.1953 15.0938C28.0703 15.3438 28.7266 15.9375 28.9453 16.75L29.3828 18.4375C29.4141 18.6875 29.6641 18.875 29.9453 19L31.8516 19.625ZM31.5391 22.375C31.8516 22.2188 32.0078 21.9688 31.9766 21.7188C31.9766 21.4062 31.7266 21.1875 31.3828 21.0625L29.4766 20.4062C28.6641 20.1562 28.1016 19.5625 27.9141 18.8125L27.4453 17.125C27.3828 16.875 27.1328 16.6562 26.7891 16.5625C26.3516 16.4375 25.8828 16.5625 25.6016 16.8438L24.2891 18.1562C23.7578 18.7188 22.9766 19 22.1641 18.9375L20.1328 18.7812C19.5703 18.7188 19.1953 19 19.0703 19.25C18.9453 19.4688 18.9766 19.6875 19.1328 19.875L20.2578 21.3438C20.7266 22 20.7891 22.8438 20.4453 23.5312L19.6328 25.125C19.5391 25.3438 19.5703 25.5625 19.6953 25.75C19.9141 26.0312 20.3828 26.25 20.8828 26.125L22.8828 25.6875C23.0391 25.6562 23.2266 25.625 23.4453 25.625C24.0391 25.625 24.6016 25.8125 25.0703 26.1562L26.6016 27.2812C27.0703 27.5938 27.5391 27.5625 27.8828 27.4062C28.0078 27.3438 28.3516 27.1562 28.3516 26.7812L28.5078 25.0625C28.5703 24.3125 29.0391 23.625 29.7891 23.25L31.5391 22.375ZM22.4766 20C23.0391 20 23.4453 20.5312 23.4453 21.0312C23.4453 21.5625 22.9766 22 22.4766 22C21.9453 22 21.5078 21.5 21.5078 21C21.5078 20.4688 21.9141 20 22.4766 20ZM26.4766 23C27.0391 23 27.4453 23.4688 27.4453 24C27.4453 24.5 26.9766 24.9688 26.4766 24.9688C25.9453 24.9688 25.5078 24.5 25.5078 24C25.5078 23.4688 25.9141 23 26.4766 23ZM26.9766 20C27.2578 20 27.4453 20.25 27.4453 20.5C27.4453 20.75 27.2266 20.9688 26.9766 20.9688C26.7266 20.9688 26.5078 20.75 26.5078 20.5C26.5078 20.25 26.6953 20 26.9766 20Z" fill="#62B970"/>
</svg>
