<svg width="24" height="24" viewBox="0 0 24 24" fill="none" xmlns="http://www.w3.org/2000/svg">
<rect opacity="0.1" width="24" height="24" rx="6" fill="#EB0000"/>
<path d="M14.7227 9.37109V6.9375C14.7227 6.71875 14.5312 6.5 14.2852 6.5C14.0391 6.5 13.8477 6.71875 13.8477 6.9375V9.37109C13.8477 9.69922 14.0117 10 14.2852 10.1641C15.8711 11.0117 16.8828 12.6523 16.8828 14.4023C16.0898 14.4023 15.0234 14.3203 13.7109 13.582C11.7695 12.4062 9.58203 12.3516 7.42188 13.3359C7.72266 11.9688 8.625 10.793 9.88281 10.1367C10.1836 9.97266 10.3477 9.67188 10.3477 9.37109V6.9375C10.3477 6.71875 10.1562 6.5 9.9375 6.5C9.69141 6.5 9.47266 6.71875 9.47266 6.9375V9.37109C7.66797 10.3008 6.4375 12.1875 6.4375 14.375C6.4375 15.8516 6.98438 17.1914 7.88672 18.2031C8.21484 18.5586 8.70703 18.75 9.17188 18.75H14.9961C15.4609 18.75 15.9258 18.5859 16.2539 18.2305C17.1562 17.2461 17.7031 15.9609 17.7578 14.5391C17.8398 12.3242 16.582 10.3828 14.7227 9.37109ZM15.6797 17.6016C15.5156 17.793 15.2969 17.875 15.0234 17.875H9.17188C8.89844 17.875 8.67969 17.793 8.51562 17.6289C7.72266 16.7266 7.28516 15.5781 7.28516 14.375C9.36328 13.2539 11.3867 13.2266 13.2734 14.3203C14.7227 15.168 15.9258 15.25 16.8008 15.25C16.6641 16.125 16.2812 16.9453 15.6797 17.6016ZM9.0625 5.625H15.1875C15.4062 5.625 15.625 5.43359 15.625 5.1875C15.625 4.96875 15.4062 4.75 15.1875 4.75H9.0625C8.81641 4.75 8.625 4.96875 8.625 5.1875C8.625 5.43359 8.81641 5.625 9.0625 5.625Z" fill="#EB0000"/>
</svg>
