<svg width="20" height="17" viewBox="0 0 20 17" fill="none" xmlns="http://www.w3.org/2000/svg">
<path d="M18.6562 11.0625C19.4062 11.0625 20 11.6562 20 12.375V13.625C20 14.375 19.4062 14.9375 18.625 14.9375H18.375V15.1875C18.375 15.9375 17.8125 16.5 17.0938 16.5H15.8438C15.0938 16.5 14.5312 15.9375 14.5312 15.1875V14.9375H14.2812C13.5625 14.9375 13 14.375 13 13.625V12.375C13 11.6562 13.5625 11.0625 14.3125 11.0625H14.5625V10.8125C14.5625 10.0938 15.125 9.5 15.875 9.5H17.125C17.8438 9.5 18.4062 10.0938 18.4062 10.8125V11.0625H18.6562ZM19 13.625V12.375C19 12.2188 18.8438 12.0625 18.625 12.0625H17.375V10.8125C17.375 10.6562 17.25 10.5 17.0938 10.5H15.8438C15.6562 10.5 15.5312 10.6562 15.5312 10.8125V12.0625H14.2812C14.125 12.0625 14 12.2188 14 12.375V13.625C14 13.8125 14.125 13.9375 14.3125 13.9375H15.5625V15.1875C15.5625 15.375 15.7188 15.5 15.875 15.5H17.125C17.2812 15.5 17.4375 15.375 17.4375 15.1875V13.9375H18.6875C18.8438 13.9375 19 13.8125 19 13.625ZM15.5 6.5H17.5312C18.4062 6.5 19.1875 7 19.625 7.75C19.8125 8.09375 19.5938 8.5 19.1875 8.5C19 8.5 18.8438 8.40625 18.75 8.25C18.5 7.8125 18.0312 7.5 17.5312 7.5H15.5C15.2812 7.5 15.0938 7.5625 14.9062 7.65625C14.625 7.78125 14.3125 7.65625 14.2188 7.375C14.125 7.125 14.25 6.84375 14.5 6.71875C14.8125 6.59375 15.1562 6.5 15.5 6.5ZM16 5.5C14.5938 5.5 13.5 4.40625 13.5 3C13.5 1.625 14.5938 0.5 16 0.5C17.375 0.5 18.5 1.625 18.5 3C18.5 4.40625 17.375 5.5 16 5.5ZM16 1.5C15.1562 1.5 14.5 2.1875 14.5 3C14.5 3.84375 15.1562 4.5 16 4.5C16.8125 4.5 17.5 3.84375 17.5 3C17.5 2.1875 16.8125 1.5 16 1.5ZM12.5 15.5C12.75 15.5 13 15.75 13 16C13 16.2812 12.75 16.5 12.5 16.5H4.875C4.375 16.5 4 16.1562 4 15.6875C4 13.375 5.96875 11.5 8.4375 11.5H11.5C11.75 11.5 12 11.75 12 12C12 12.2812 11.75 12.5 11.5 12.5H8.40625C6.59375 12.5 5.09375 13.8438 5 15.5H12.5ZM5.0625 7.65625C4.875 7.5625 4.6875 7.5 4.5 7.5H2.4375C1.65625 7.5 1 8.21875 1 9.09375V9.5C1 9.78125 0.75 10 0.5 10C0.21875 10 0 9.78125 0 9.5V9.09375C0 7.6875 1.09375 6.5 2.4375 6.5H4.5C4.84375 6.5 5.1875 6.59375 5.5 6.75C5.75 6.875 5.84375 7.15625 5.75 7.40625C5.625 7.65625 5.3125 7.78125 5.0625 7.65625ZM4 5.5C2.59375 5.5 1.5 4.40625 1.5 3C1.5 1.625 2.59375 0.5 4 0.5C5.375 0.5 6.5 1.625 6.5 3C6.5 4.40625 5.375 5.5 4 5.5ZM4 1.5C3.15625 1.5 2.5 2.1875 2.5 3C2.5 3.84375 3.15625 4.5 4 4.5C4.8125 4.5 5.5 3.84375 5.5 3C5.5 2.1875 4.8125 1.5 4 1.5ZM9.96875 10.5C8.1875 10.5 6.71875 9.0625 6.75 7.25C6.75 5.46875 8.1875 4 9.96875 4C11.75 4 13.2188 5.46875 13.2188 7.25C13.2188 9.0625 11.7812 10.5 9.96875 10.5ZM9.96875 5C8.75 5 7.71875 6.03125 7.71875 7.25C7.71875 8.5 8.75 9.5 9.96875 9.5C11.2188 9.5 12.2188 8.5 12.2188 7.25C12.2188 6.03125 11.2188 5 9.96875 5Z" fill="#212121"/>
</svg>