<svg width="41" height="33" viewBox="0 0 41 33" fill="none" xmlns="http://www.w3.org/2000/svg">
<path d="M31.7344 23.1875H15.2344V31.1875H31.7344C31.9844 31.1875 32.2344 31.4375 32.2344 31.6875C32.2344 32 31.9844 32.1875 31.7344 32.1875H2.48438C1.23438 32.1875 0.234375 31.1875 0.234375 29.9375V24.5C0.234375 23.25 1.23438 22.1875 2.48438 22.1875H31.7344C31.9844 22.1875 32.2344 22.4375 32.2344 22.6875C32.2344 23 31.9844 23.1875 31.7344 23.1875ZM14.2344 31.1875V23.1875H2.48438C1.79688 23.1875 1.23438 23.8125 1.23438 24.5V29.9375C1.23438 30.625 1.79688 31.1875 2.48438 31.1875H14.2344ZM35.7344 22.1875C35.9844 22.1875 36.2344 22.4375 36.2344 22.6875V31.6875C36.2344 32 35.9844 32.1875 35.7344 32.1875C35.4219 32.1875 35.2344 32 35.2344 31.6875V22.6875C35.2344 22.4375 35.4219 22.1875 35.7344 22.1875ZM33.7344 22.1875C33.9844 22.1875 34.2344 22.4375 34.2344 22.6875V31.6875C34.2344 32 33.9844 32.1875 33.7344 32.1875C33.4219 32.1875 33.2344 32 33.2344 31.6875V22.6875C33.2344 22.4375 33.4219 22.1875 33.7344 22.1875ZM37.7344 22.1875C37.9844 22.1875 38.2344 22.4375 38.2344 22.6875V31.6875C38.2344 32 37.9844 32.1875 37.7344 32.1875C37.4219 32.1875 37.2344 32 37.2344 31.6875V22.6875C37.2344 22.4375 37.4219 22.1875 37.7344 22.1875ZM39.7344 22.1875C39.9844 22.1875 40.2344 22.4375 40.2344 22.6875V31.6875C40.2344 32 39.9844 32.1875 39.7344 32.1875C39.4219 32.1875 39.2344 32 39.2344 31.6875V22.6875C39.2344 22.4375 39.4219 22.1875 39.7344 22.1875ZM30.9844 8.8125C32.9844 10.125 34.2344 12.375 34.2344 14.8125V17.6875C34.2344 18 33.9844 18.1875 33.7344 18.1875C33.4219 18.1875 33.2344 18 33.2344 17.6875V14.8125C33.2344 12.75 32.1719 10.8125 30.4219 9.625C28.4219 8.3125 27.2344 6.0625 27.2344 3.625V0.6875C27.2344 0.4375 27.4219 0.1875 27.7344 0.1875C27.9844 0.1875 28.2344 0.4375 28.2344 0.6875V3.625C28.2344 5.6875 29.2344 7.625 30.9844 8.8125ZM36.9844 8.8125C38.9844 10.125 40.2344 12.375 40.2344 14.8125V17.6875C40.2344 18 39.9844 18.1875 39.7344 18.1875C39.4219 18.1875 39.2344 18 39.2344 17.6875V14.8125C39.2344 12.75 38.1719 10.8125 36.4219 9.625C34.4219 8.3125 33.2344 6.0625 33.2344 3.625V0.6875C33.2344 0.4375 33.4219 0.1875 33.7344 0.1875C33.9844 0.1875 34.2344 0.4375 34.2344 0.6875V3.625C34.2344 5.6875 35.2344 7.625 36.9844 8.8125Z" fill="#0030CC"/>
</svg>
