<svg width="19" height="17" viewBox="0 0 19 17" fill="none" xmlns="http://www.w3.org/2000/svg">
<path d="M0 1C0 0.75 0.21875 0.5 0.5 0.5H1.65625C2.375 0.5 3 1 3.125 1.71875L4.53125 8.5H14.5625C15.0312 8.5 15.4375 8.1875 15.5312 7.75L17 1.90625C17.0625 1.625 17.3438 1.46875 17.5938 1.53125C17.875 1.59375 18.0312 1.875 17.9688 2.125L16.5 8C16.2812 8.875 15.4688 9.5 14.5625 9.5H4.75L4.96875 10.7188C5.0625 11.1875 5.5 11.5 5.96875 11.5H15.5C15.75 11.5 16 11.75 16 12C16 12.2812 15.75 12.5 15.5 12.5H5.96875C5 12.5 4.1875 11.8438 4 10.9062L2.15625 1.90625C2.125 1.6875 1.90625 1.5 1.65625 1.5H0.5C0.21875 1.5 0 1.28125 0 1ZM6 15.5C6.5625 15.5 6.9375 14.875 6.625 14.375C6.5 14.1562 6.25 14 6 14C5.40625 14 5.03125 14.625 5.34375 15.125C5.46875 15.375 5.71875 15.5 6 15.5ZM6 13C7.34375 13 8.1875 14.4688 7.5 15.625C7.1875 16.1875 6.625 16.5 6 16.5C4.625 16.5 3.78125 15.0625 4.46875 13.875C4.78125 13.3438 5.34375 13 6 13ZM14.75 14.75C14.75 14.1875 14.125 13.8125 13.625 14.125C13.375 14.25 13.25 14.5 13.25 14.75C13.25 15.3438 13.875 15.7188 14.375 15.4062C14.5938 15.2812 14.75 15.0312 14.75 14.75ZM12.25 14.75C12.25 13.4062 13.6875 12.5625 14.875 13.25C15.4062 13.5625 15.75 14.125 15.75 14.75C15.75 16.125 14.2812 16.9688 13.125 16.2812C12.5625 15.9688 12.25 15.4062 12.25 14.75ZM10.5 1V5.3125L11.625 4.15625C11.8125 3.96875 12.1562 3.96875 12.3438 4.15625C12.5312 4.34375 12.5312 4.6875 12.3438 4.875L10.3438 6.875C10.1562 7.0625 9.8125 7.0625 9.625 6.875L7.625 4.875C7.4375 4.6875 7.4375 4.34375 7.625 4.15625C7.8125 3.96875 8.15625 3.96875 8.34375 4.15625L9.5 5.3125V1C9.5 0.75 9.71875 0.5 10 0.5C10.25 0.5 10.5 0.75 10.5 1Z" fill="#212121"/>
</svg>