<svg width="37" height="33" viewBox="0 0 37 33" fill="none" xmlns="http://www.w3.org/2000/svg">
<path d="M6.16797 24.75C5.91797 24.75 5.73047 24.5625 5.66797 24.3125C5.48047 23.375 5.29297 22.1875 3.10547 19.9375C1.98047 18.8125 1.91797 17.25 1.79297 15.8125C1.73047 14.8125 1.66797 13.875 1.35547 13.0625C0.480469 11.0625 0.730469 8.8125 1.91797 7.125C2.16797 6.75 2.48047 6.375 2.85547 6.125C3.54297 5.5625 4.04297 4.875 4.41797 3.9375C4.79297 2.9375 5.41797 2.0625 6.29297 1.375C7.23047 0.6875 8.29297 0.25 9.41797 0.25C10.543 0.125 11.668 0.4375 12.668 1.0625C13.543 1.6875 14.2305 2.4375 14.7305 3.4375C14.8555 3.6875 14.7305 4 14.4805 4.125C14.2305 4.25 13.918 4.125 13.793 3.875C13.418 3.0625 12.8555 2.375 12.1055 1.9375C11.293 1.375 10.418 1.1875 9.48047 1.25C8.54297 1.25 7.66797 1.5625 6.91797 2.1875C6.23047 2.75 5.66797 3.4375 5.35547 4.3125C4.91797 5.375 4.29297 6.25 3.48047 6.875C3.16797 7.125 2.91797 7.4375 2.73047 7.75C1.73047 9.125 1.54297 11 2.23047 12.625C2.66797 13.625 2.73047 14.6875 2.79297 15.75C2.91797 17.0625 2.98047 18.375 3.85547 19.25C6.04297 21.5 6.41797 22.875 6.66797 24.1875C6.73047 24.4375 6.54297 24.6875 6.23047 24.75C6.23047 24.75 6.23047 24.75 6.16797 24.75ZM36.668 6.25C36.918 7.625 36.8555 8.9375 36.3555 10.1875C35.9805 11.3125 35.918 12.4375 36.168 13.5625C36.293 14.125 36.3555 14.6875 36.293 15.3125C36.1055 17.8125 34.543 20 32.1055 21C31.1055 21.375 30.293 22.1875 29.418 23C28.168 24.25 26.8555 25.5 24.793 25.5C21.043 25.5 20.293 26.0625 19.4805 26.6875C18.543 27.4375 17.4805 28.25 12.418 28.25C11.6055 28.25 10.793 28 10.168 27.5L10.1055 27.5625L5.66797 32.0625C5.60547 32.1875 5.48047 32.1875 5.29297 32.1875C5.16797 32.1875 5.04297 32.1875 4.98047 32.0625C4.79297 31.875 4.79297 31.5625 4.98047 31.375L9.48047 26.875L9.54297 26.8125C9.04297 26.25 8.79297 25.5 8.85547 24.75C8.85547 19.5625 9.66797 18.5 10.4805 17.5C11.043 16.6875 11.668 15.9375 11.668 12.25C11.668 10.1875 12.918 8.875 14.1055 7.625C14.918 6.75 15.7305 5.9375 16.1055 4.875C17.1055 2.4375 19.293 0.875 21.793 0.6875C22.3555 0.625 22.9805 0.6875 23.543 0.8125C24.6055 1.0625 25.793 1 26.8555 0.625C28.168 0.1875 29.4805 0.125 30.793 0.375C32.2305 0.6875 33.543 1.4375 34.543 2.5C35.6055 3.5 36.3555 4.8125 36.668 6.25ZM35.4805 9.875C35.8555 8.75 35.918 7.625 35.668 6.5C35.418 5.25 34.793 4.125 33.8555 3.1875C32.918 2.25 31.793 1.625 30.6055 1.375C29.418 1.125 28.293 1.1875 27.2305 1.5625C25.918 2 24.6055 2.0625 23.3555 1.8125C22.918 1.6875 22.543 1.6875 22.168 1.6875C22.043 1.6875 21.9805 1.6875 21.8555 1.6875C19.7305 1.8125 17.8555 3.1875 17.043 5.25C16.543 6.4375 15.668 7.375 14.793 8.3125C13.668 9.5 12.6055 10.5625 12.6055 12.25C12.6055 16.25 11.918 17.1875 11.168 18.125C10.4805 19 9.79297 19.9375 9.79297 24.75C9.79297 25.25 9.91797 25.6875 10.2305 26.0625L16.793 19.5V12.6875C16.793 12.4375 16.9805 12.1875 17.293 12.1875C17.543 12.1875 17.793 12.4375 17.793 12.6875V18.5L27.9805 8.375C28.168 8.1875 28.4805 8.1875 28.668 8.375C28.8555 8.5625 28.8555 8.875 28.668 9.0625L22.543 15.1875H28.3555C28.6055 15.1875 28.8555 15.4375 28.8555 15.6875C28.8555 16 28.6055 16.1875 28.3555 16.1875H21.543L10.9805 26.75C11.418 27.0625 11.918 27.25 12.4805 27.25C17.2305 27.25 18.1055 26.5625 18.9805 25.875C19.8555 25.1875 20.7305 24.5 24.8555 24.5C26.4805 24.5 27.6055 23.4375 28.793 22.3125C29.668 21.4375 30.6055 20.5625 31.793 20.0625C33.8555 19.25 35.2305 17.375 35.3555 15.25C35.418 14.75 35.3555 14.25 35.2305 13.75C34.9805 12.5 35.043 11.1875 35.4805 9.875Z" fill="#0030CC"/>
</svg>
