<svg width="50" height="44" viewBox="0 0 50 44" fill="none" xmlns="http://www.w3.org/2000/svg">
<rect opacity="0.1" x="0.953125" width="48.0756" height="44" rx="11" fill="#212121"/>
<path d="M26.9375 23.5C29.9688 23.5 32.4375 25.9688 32.4375 29C32.4375 29.5625 31.9688 30 31.4375 30H19.4375C18.875 30 18.4375 29.5625 18.4375 29C18.4375 25.9688 20.875 23.5 23.9375 23.5H26.9375ZM19.9375 28.5H30.9062C30.6562 26.5312 28.9688 25 26.9375 25H23.9375C21.875 25 20.1875 26.5312 19.9375 28.5ZM25.4375 22C23.2188 22 21.4375 20.2188 21.4375 18C21.4375 15.8125 23.2188 14 25.4375 14C27.625 14 29.4375 15.8125 29.4375 18C29.4375 20.2188 27.625 22 25.4375 22ZM25.4375 15.5C24.0312 15.5 22.9375 16.625 22.9375 18C22.9375 19.4062 24.0312 20.5 25.4375 20.5C26.8125 20.5 27.9375 19.4062 27.9375 18C27.9375 16.625 26.8125 15.5 25.4375 15.5Z" fill="#212121"/>
</svg>
