<svg width="49" height="44" viewBox="0 0 49 44" fill="none" xmlns="http://www.w3.org/2000/svg">
<rect opacity="0.1" x="0.796875" width="47.7418" height="44" rx="11" fill="#FFB118"/>
<path d="M26.6562 23.5C29.6875 23.5 32.1562 25.9688 32.1562 29C32.1562 29.5625 31.6875 30 31.1562 30H19.1562C18.5938 30 18.1562 29.5625 18.1562 29C18.1562 25.9688 20.5938 23.5 23.6562 23.5H26.6562ZM19.6562 28.5H30.625C30.375 26.5312 28.6875 25 26.6562 25H23.6562C21.5938 25 19.9062 26.5312 19.6562 28.5ZM25.1562 22C22.9375 22 21.1562 20.2188 21.1562 18C21.1562 15.8125 22.9375 14 25.1562 14C27.3438 14 29.1562 15.8125 29.1562 18C29.1562 20.2188 27.3438 22 25.1562 22ZM25.1562 15.5C23.75 15.5 22.6562 16.625 22.6562 18C22.6562 19.4062 23.75 20.5 25.1562 20.5C26.5312 20.5 27.6562 19.4062 27.6562 18C27.6562 16.625 26.5312 15.5 25.1562 15.5Z" fill="#FFB118"/>
</svg>
