<svg width="24" height="24" viewBox="0 0 24 24" fill="none" xmlns="http://www.w3.org/2000/svg">
<rect opacity="0.1" width="24" height="24" rx="6" fill="#62B970"/>
<path d="M20.5 11.3125C20.5 11.5586 20.2812 11.75 20.0625 11.75H16.3984L14.7578 15.8516C14.7031 16.043 14.5391 16.1523 14.3203 16.125C14.1562 16.125 13.9922 15.9883 13.9375 15.7969L11.7773 7.18359L9.53516 18.4219C9.50781 18.6133 9.31641 18.75 9.125 18.75C8.90625 18.75 8.74219 18.6133 8.6875 18.4219L7.01953 11.75H3.4375C3.19141 11.75 3 11.5586 3 11.3125C3 11.0938 3.19141 10.9023 3.4375 10.9023H7.375C7.56641 10.9023 7.73047 11.0391 7.78516 11.2578L9.07031 16.3711L11.3125 5.13281C11.3398 4.91406 11.5312 4.77734 11.7227 4.75C11.9414 4.77734 12.1055 4.88672 12.1602 5.10547L14.457 14.293L15.7148 11.1758C15.7695 10.9844 15.9336 10.875 16.125 10.875H20.0625C20.2812 10.875 20.5 11.0938 20.5 11.3125Z" fill="#62B970"/>
</svg>
