<svg width="44" height="44" viewBox="0 0 44 44" fill="none" xmlns="http://www.w3.org/2000/svg">
<rect opacity="0.1" width="44" height="44" rx="11" fill="#0030CC"/>
<path d="M22 14C17.5625 14 14 17.5938 14 22C14 26.4375 17.5625 30 22 30C26.4062 30 30 26.4375 30 22C30 17.5938 26.4062 14 22 14ZM22 28.5C18.4062 28.5 15.5 25.5938 15.5 22C15.5 18.4375 18.4062 15.5 22 15.5C25.5625 15.5 28.5 18.4375 28.5 22C28.5 25.5938 25.5625 28.5 22 28.5ZM22 23.5C22.4062 23.5 22.75 23.1875 22.75 22.75V18.75C22.75 18.3438 22.4062 18 22 18C21.5625 18 21.25 18.3438 21.25 18.75V22.75C21.25 23.1875 21.5625 23.5 22 23.5ZM22 24.5625C21.4375 24.5625 21 25 21 25.5312C21 26.0625 21.4375 26.5 22 26.5C22.5312 26.5 22.9688 26.0625 22.9688 25.5312C22.9688 25 22.5312 24.5625 22 24.5625Z" fill="#0030CC"/>
</svg>
